<?xml version="1.0" standalone="no"?>
<!DOCTYPE svg PUBLIC "-//W3C//DTD SVG 20010904//EN"
 "http://www.w3.org/TR/2001/REC-SVG-20010904/DTD/svg10.dtd">
<svg version="1.0" xmlns="http://www.w3.org/2000/svg"
 width="1292.000000pt" height="1423.000000pt" viewBox="0 0 1292.000000 1423.000000"
 preserveAspectRatio="xMidYMid meet">

<g transform="translate(0.000000,1423.000000) scale(0.100000,-0.100000)"
fill="#000000" stroke="none">
<path d="M2011 14209 c-253 -28 -534 -111 -757 -224 -455 -229 -787 -560
-1008 -1001 -107 -213 -179 -452 -211 -697 -13 -105 -15 -690 -15 -5172 0
-5529 -4 -5143 57 -5400 93 -393 277 -732 555 -1020 544 -565 1340 -806 2094
-634 177 40 396 121 544 201 63 34 432 247 1175 676 72 41 447 258 835 482
388 224 1331 768 2095 1210 765 441 1496 863 1625 938 129 74 404 233 610 352
206 120 713 412 1125 650 1100 635 1122 648 1217 712 402 269 710 683 859
1153 69 219 99 424 99 684 0 368 -74 682 -236 1003 -171 335 -427 625 -739
833 -108 72 -8582 4965 -8715 5032 -194 98 -429 173 -657 209 -119 19 -436 26
-552 13z m360 -1794 c55 -20 52 -18 704 -395 308 -177 1676 -967 3040 -1755
1364 -788 2973 -1717 3575 -2064 602 -348 1136 -656 1185 -686 191 -113 262
-233 253 -429 -3 -76 -9 -102 -35 -159 -49 -104 -109 -156 -318 -276 -99 -57
-310 -179 -470 -271 -882 -510 -1310 -757 -2605 -1505 -784 -452 -2280 -1316
-3325 -1920 -1045 -604 -1929 -1112 -1964 -1128 -125 -59 -287 -46 -409 32
-75 49 -127 109 -166 190 l-31 66 0 4995 0 4995 23 57 c26 63 101 152 166 197
40 27 135 66 186 75 41 7 145 -3 191 -19z"/>
</g>
</svg>
