<?xml version="1.0" standalone="no"?>
<!DOCTYPE svg PUBLIC "-//W3C//DTD SVG 20010904//EN"
 "http://www.w3.org/TR/2001/REC-SVG-20010904/DTD/svg10.dtd">
<svg version="1.0" xmlns="http://www.w3.org/2000/svg"
 width="131" height="40" viewBox="0 0 131 40">

<g transform="translate(0.000000,1080.000000) scale(0.100000,-0.100000)"
fill="#000000" stroke="none">
<path d="M1993 8014 c-33 -7 -96 -27 -140 -43 -225 -87 -436 -309 -523 -549
-52 -145 -64 -212 -63 -377 0 -128 4 -164 26 -247 99 -377 382 -652 732 -713
111 -19 180 -19 290 0 286 50 534 247 665 529 107 228 125 487 54 734 -98 338
-369 599 -694 667 -87 18 -262 18 -347 -1z m584 -600 c-1 -2 -141 -41 -310
-86 l-308 -83 321 -3 321 -2 -3 -278 -3 -279 -27 -35 c-51 -66 -60 -68 -404
-68 l-307 0 -43 25 c-28 16 -49 39 -63 68 -20 40 -21 60 -21 298 0 216 -3 265
-19 327 l-19 72 24 6 c13 3 203 55 422 114 l397 107 23 -90 c13 -49 21 -91 19
-93z"/>
<path d="M2458 7533 c-10 -2 -18 -8 -18 -13 0 -11 81 -83 86 -77 3 3 0 25 -7
51 -11 46 -18 50 -61 39z"/>
<path d="M2273 7483 c-32 -6 -29 -15 17 -57 44 -40 42 -39 89 -22 l34 12 -43
37 c-43 36 -51 39 -97 30z"/>
<path d="M2081 7429 c-23 -9 -23 -10 -5 -30 43 -48 68 -59 110 -48 l38 11 -41
39 c-43 40 -60 45 -102 28z"/>
<path d="M1910 7383 c-8 -2 -21 -7 -29 -9 -16 -5 6 -33 52 -66 24 -17 32 -18
63 -8 l36 12 -38 39 c-37 38 -52 43 -84 32z"/>
<path d="M1754 7298 c4 -22 9 -45 12 -50 5 -7 48 -2 67 10 10 5 -62 82 -76 82
-6 0 -7 -18 -3 -42z"/>
<path d="M1770 7140 l0 -50 41 0 41 0 -16 25 c-9 14 -23 36 -32 50 -24 38 -34
30 -34 -25z"/>
<path d="M1914 7165 c9 -14 23 -36 32 -50 13 -20 25 -25 55 -25 22 0 39 2 39
5 0 2 -12 25 -27 50 -26 42 -30 45 -72 45 l-43 0 16 -25z"/>
<path d="M2102 7183 c2 -5 14 -27 28 -50 23 -40 28 -43 69 -43 l43 0 -16 25
c-9 14 -23 36 -32 50 -13 20 -25 25 -56 25 -22 0 -38 -3 -36 -7z"/>
<path d="M2304 7165 c9 -14 23 -36 32 -50 13 -20 25 -25 55 -25 22 0 39 3 39
6 0 3 -14 25 -30 50 -28 40 -35 44 -72 44 l-40 0 16 -25z"/>
<path d="M2512 7140 c18 -27 36 -50 41 -50 4 0 7 23 7 50 l0 50 -40 0 -40 0
32 -50z"/>
<path d="M1770 6888 c0 -132 3 -157 20 -193 33 -68 39 -70 360 -73 322 -3 349
1 387 57 22 32 23 44 23 197 l0 164 -395 0 -395 0 0 -152z m433 8 c80 -48 96
-61 85 -72 -17 -17 -179 -114 -190 -114 -4 0 -8 57 -8 126 0 69 3 124 8 122 4
-1 51 -30 105 -62z"/>
<path d="M3620 7441 c-141 -45 -244 -160 -285 -318 -19 -74 -19 -233 0 -307
69 -264 292 -391 580 -331 98 20 145 43 145 69 0 12 11 57 25 101 14 44 25 85
25 91 0 8 -124 45 -151 44 -4 0 -12 -27 -19 -60 -7 -33 -18 -64 -25 -70 -20
-17 -137 -28 -194 -19 -100 16 -177 93 -202 204 -17 78 -7 249 18 306 28 61
84 114 141 133 52 18 150 21 204 6 39 -11 46 -24 64 -123 5 -33 10 -38 28 -34
11 3 47 11 79 18 67 14 67 13 39 149 -17 82 -19 86 -58 107 -97 54 -300 71
-414 34z"/>
<path d="M4249 7291 c-62 -62 -20 -171 66 -171 27 0 44 8 66 29 62 62 20 171
-66 171 -27 0 -44 -8 -66 -29z"/>
<path d="M8010 7307 c-34 -17 -52 -55 -46 -100 5 -48 29 -75 73 -83 46 -9 88
11 107 51 20 41 20 49 1 90 -25 51 -82 69 -135 42z"/>
<path d="M5850 7185 l0 -65 55 0 55 0 0 -250 0 -250 -60 0 -60 0 0 -65 0 -65
165 0 165 0 0 64 0 65 -37 3 -38 3 -11 245 c-5 135 -9 246 -8 248 3 4 24 -94
24 -110 0 -6 37 -105 82 -220 l81 -208 71 0 71 0 77 208 c43 114 82 230 87
257 8 37 9 7 5 -120 -2 -93 -7 -200 -11 -237 l-6 -68 -38 0 -39 0 0 -65 0 -65
170 0 170 0 0 65 0 65 -55 0 -55 0 0 250 0 250 55 0 55 0 0 65 0 65 -149 0
-149 0 -50 -127 c-27 -71 -67 -174 -88 -230 -21 -57 -41 -103 -44 -103 -3 0
-45 104 -94 230 l-89 230 -154 0 -153 0 0 -65z"/>
<path d="M7600 7186 l-45 -12 -3 -57 -3 -57 -49 0 -50 0 0 -59 0 -60 48 -3 47
-3 5 -170 c4 -148 8 -175 26 -205 45 -78 131 -104 240 -75 51 14 64 21 60 34
-3 9 -10 36 -16 59 -8 30 -16 42 -25 39 -7 -3 -32 -11 -54 -18 -39 -12 -44
-11 -64 10 -20 20 -22 32 -25 176 l-3 155 75 0 76 0 0 60 0 60 -75 0 -75 0 0
70 c0 79 -1 80 -90 56z"/>
<path d="M4545 7069 c-12 -33 -35 -102 -35 -104 0 -1 27 -12 60 -24 l61 -22
-3 -152 -3 -152 -47 -3 -48 -3 0 -60 0 -59 150 0 150 0 0 59 c0 58 -1 60 -27
63 l-28 3 -3 153 -3 152 28 11 c46 19 111 22 143 9 50 -21 60 -53 60 -200 l0
-130 -25 0 c-24 0 -25 -3 -25 -60 l0 -60 145 0 145 0 0 59 0 60 -47 3 -48 3
-5 162 c-5 160 -5 162 -35 204 -46 65 -110 94 -205 93 -55 -1 -89 -7 -128 -24
l-54 -23 -71 23 c-40 12 -78 25 -84 27 -7 3 -15 -1 -18 -8z"/>
<path d="M7055 7074 c-11 -2 -47 -11 -81 -20 l-60 -15 -12 -71 c-14 -81 -13
-83 55 -93 51 -7 63 -2 63 29 0 34 19 46 73 46 59 0 82 -11 102 -50 28 -55 25
-57 -93 -61 -91 -4 -116 -8 -156 -29 -62 -32 -86 -74 -86 -153 0 -68 17 -106
62 -141 69 -52 212 -60 299 -16 l42 22 83 -31 c46 -16 85 -27 87 -23 11 18 39
114 35 118 -3 2 -29 12 -59 22 l-54 19 -5 150 c-5 145 -6 151 -35 198 -38 61
-96 93 -180 99 -33 3 -69 3 -80 0z m155 -404 c0 -34 -4 -42 -30 -55 -44 -23
-135 -20 -160 5 -24 24 -25 47 -3 72 13 15 32 18 105 18 l88 0 0 -40z"/>
<path d="M5435 7054 c-104 -37 -166 -129 -173 -260 -6 -107 15 -171 75 -236
59 -63 114 -83 223 -83 73 0 93 4 140 28 30 15 66 36 79 47 l24 20 -29 41
c-35 52 -46 56 -81 31 -109 -75 -263 -43 -288 61 l-7 27 201 0 201 0 0 58 c0
121 -56 223 -145 263 -49 23 -162 24 -220 3z m165 -119 c25 -13 60 -60 60 -80
0 -3 -56 -5 -125 -5 -138 0 -147 5 -97 53 49 47 110 59 162 32z"/>
<path d="M4160 7001 l0 -60 48 -3 47 -3 0 -160 0 -160 -47 -3 -48 -3 0 -60 0
-59 170 0 170 0 0 60 0 60 -50 0 -50 0 0 225 0 225 -120 0 -120 0 0 -59z"/>
<path d="M7900 7001 l0 -60 48 -3 47 -3 0 -160 0 -160 -47 -3 -48 -3 0 -60 0
-59 170 0 170 0 0 59 0 60 -47 3 -48 3 -3 223 -2 222 -120 0 -120 0 0 -59z"/>
<path d="M8250 7000 l0 -60 48 0 c46 0 50 -2 126 -79 72 -72 78 -82 65 -98
-32 -42 -115 -139 -124 -145 -5 -4 -34 -8 -62 -8 l-53 0 0 -60 0 -60 151 0
150 0 -2 75 c-3 66 -1 78 19 97 l22 23 33 -34 c21 -22 28 -35 20 -38 -9 -3
-13 -26 -13 -64 l0 -59 165 0 165 0 0 60 0 60 -59 0 -58 0 -72 80 c-50 55 -70
84 -64 93 4 7 35 46 67 85 59 71 61 72 108 72 l48 0 0 60 0 60 -141 0 -140 0
2 -75 c3 -66 1 -78 -19 -97 l-22 -23 -33 34 c-21 22 -28 35 -19 38 8 3 12 26
12 64 l0 59 -160 0 -160 0 0 -60z"/>
</g>
</svg>
